<?xml version="1.0" encoding="UTF-8"?>
<svg width="84px" height="60px" viewBox="0 0 84 60" version="1.1" xmlns="http://www.w3.org/2000/svg" xmlns:xlink="http://www.w3.org/1999/xlink">
    <title>Group 5</title>
    <defs>
        <filter id="filter-1">
            <feColorMatrix in="SourceGraphic" type="matrix" values="0 0 0 0 0.494118 0 0 0 0 0.827451 0 0 0 0 0.129412 0 0 0 1.000000 0"></feColorMatrix>
        </filter>
        <filter id="filter-2">
            <feColorMatrix in="SourceGraphic" type="matrix" values="0 0 0 0 0.254902 0 0 0 0 0.458824 0 0 0 0 0.019608 0 0 0 1.000000 0"></feColorMatrix>
        </filter>
    </defs>
    <g id="Page-1" stroke="none" stroke-width="1" fill="none" fill-rule="evenodd">
        <g id="Artboard" transform="translate(-849.000000, -381.000000)">
            <g id="Group-5" transform="translate(849.000000, 381.000000)">
                <g filter="url(#filter-1)" id="Rectangle">
                    <g>
                        <g filter="url(#filter-2)" id="tabler:leaf-copy-7">
                            <g transform="translate(26.000000, 0.000000)">
                                <rect id="ViewBox" x="0" y="0" width="32" height="32"></rect>
                                <g id="Group" stroke-linecap="round" stroke-linejoin="round" transform="translate(5.000000, 7.333333)" stroke="#000000" stroke-width="4">
                                    <path d="M3.66666667,22.6666667 C4.0952381,16.3666667 5.80952381,11.4666667 9.66666667,8.66666667" id="Path"></path>
                                    <path d="M5.95048533,16.6666667 C12.9396198,16.6666667 17.7526584,12.9089524 18.3146667,2.95238095 L18.3146667,0.666666667 L13.8028645,0.666666667 C3.68671612,0.666666667 0.330402897,5.23809524 0.314666667,10.952381 C0.314666667,12.0952381 0.314666667,14.3809524 2.56269964,16.6666667 L5.93474909,16.6666667 L5.95048533,16.6666667 Z" id="Path"></path>
                                </g>
                            </g>
                        </g>
                        <g id="tabler:building-skyscraper" transform="translate(0.000000, 12.000000)">
                            <rect id="ViewBox" x="0" y="0" width="48" height="48"></rect>
                            <g id="Group" stroke-linecap="round" stroke-linejoin="round" transform="translate(6.000000, 6.000000)" stroke-width="4">
                                <line x1="0" y1="36" x2="36" y2="36" id="Path" stroke="#000000"></line>
                                <polyline id="Path" stroke="#6EA41C" points="4 36 4 8 20 0 20 36"></polyline>
                                <polyline id="Path" stroke="#6EA41C" points="32 36 32 16 20 8"></polyline>
                                <line x1="12" y1="12" x2="12" y2="12.02" id="Path" stroke="#6EA41C"></line>
                                <line x1="12" y1="18" x2="12" y2="18.02" id="Path" stroke="#6EA41C"></line>
                                <line x1="12" y1="24" x2="12" y2="24.02" id="Path" stroke="#6EA41C"></line>
                                <line x1="12" y1="30" x2="12" y2="30.02" id="Path" stroke="#6EA41C"></line>
                            </g>
                        </g>
                    </g>
                </g>
                <path d="M55.72,55.948 C58.3866667,55.948 60.4506667,55.228 61.912,53.788 C63.3733333,52.348 64.104,50.2946667 64.104,47.628 L64.104,47.628 L64.104,33.644 C63.5066667,33.5373333 62.792,33.484 61.96,33.484 C61.128,33.484 60.4133333,33.5373333 59.816,33.644 L59.816,33.644 L59.816,47.66 C59.816,50.9026667 58.4506667,52.524 55.72,52.524 C53.0106667,52.524 51.656,50.9026667 51.656,47.66 L51.656,47.66 L51.656,36.204 C51.656,35.244 51.4533333,34.5453333 51.048,34.108 C50.6426667,33.6706667 50.0133333,33.452 49.16,33.452 L49.16,33.452 L47.56,33.452 L47.368,33.676 L47.368,47.628 C47.368,50.2946667 48.0986667,52.348 49.56,53.788 C51.0213333,55.228 53.0746667,55.948 55.72,55.948 Z M74.864,55.948 C77.8933333,55.948 80.6773333,55.5 83.216,54.604 L83.216,54.604 L83.216,46.22 C83.216,44.4066667 82.2346667,43.5 80.272,43.5 L80.272,43.5 L75.312,43.532 C75.0986667,44.1293333 74.992,44.7053333 74.992,45.26 C74.992,45.9213333 75.1466667,46.4013333 75.456,46.7 C75.7653333,46.9986667 76.2933333,47.148 77.04,47.148 L77.04,47.148 L79.216,47.148 C79.1946667,47.3826667 79.1786667,47.676 79.168,48.028 C79.1573333,48.38 79.152,48.7906667 79.152,49.26 L79.152,52.108 C78.064,52.364 76.9333333,52.492 75.76,52.492 C71.9413333,52.492 70.032,49.8786667 70.032,44.652 C70.032,39.4253333 71.952,36.812 75.792,36.812 C77.6693333,36.812 79.4613333,37.42 81.168,38.636 C81.6373333,38.3373333 82.0693333,37.8946667 82.464,37.308 C82.8586667,36.7213333 83.088,36.1186667 83.152,35.5 C80.8693333,33.964 78.3626667,33.196 75.632,33.196 C74.3093333,33.196 73.0453333,33.4253333 71.84,33.884 C70.6346667,34.3426667 69.5733333,35.0466667 68.656,35.996 C67.7386667,36.9453333 67.0026667,38.1453333 66.448,39.596 C65.8933333,41.0466667 65.616,42.7533333 65.616,44.716 C65.616,46.4013333 65.808,47.9373333 66.192,49.324 C66.576,50.7106667 67.152,51.8946667 67.92,52.876 C68.688,53.8573333 69.6533333,54.6146667 70.816,55.148 C71.9786667,55.6813333 73.328,55.948 74.864,55.948 Z" id="UG" fill="#417505" fill-rule="nonzero"></path>
            </g>
        </g>
    </g>
</svg>