<?xml version="1.0" encoding="UTF-8"?>
<svg width="276px" height="60px" viewBox="0 0 276 60" version="1.1" xmlns="http://www.w3.org/2000/svg" xmlns:xlink="http://www.w3.org/1999/xlink">
    <title>Group 3@2x</title>
    <defs>
        <filter id="filter-1">
            <feColorMatrix in="SourceGraphic" type="matrix" values="0 0 0 0 0.494150 0 0 0 0 0.826234 0 0 0 0 0.129877 0 0 0 1.000000 0"></feColorMatrix>
        </filter>
        <filter id="filter-2">
            <feColorMatrix in="SourceGraphic" type="matrix" values="0 0 0 0 0.431373 0 0 0 0 0.643137 0 0 0 0 0.109804 0 0 0 1.000000 0"></feColorMatrix>
        </filter>
        <filter id="filter-3">
            <feColorMatrix in="SourceGraphic" type="matrix" values="0 0 0 0 0.431373 0 0 0 0 0.643137 0 0 0 0 0.109804 0 0 0 1.000000 0"></feColorMatrix>
        </filter>
    </defs>
    <g id="Page-1" stroke="none" stroke-width="1" fill="none" fill-rule="evenodd">
        <g id="Artboard" transform="translate(-684.000000, -294.000000)">
            <g id="Group-3" transform="translate(684.000000, 294.000000)">
                <g filter="url(#filter-1)" id="Group-2-Copy-4">
                    <g>
                        <g filter="url(#filter-2)" id="tabler:leaf-copy-7">
                            <g transform="translate(26.000000, 0.000000)">
                                <rect id="ViewBox" x="0" y="0" width="32" height="32"></rect>
                                <g id="Group" stroke-linecap="round" stroke-linejoin="round" transform="translate(5.000000, 7.333333)" stroke="#000000" stroke-width="4">
                                    <path d="M3.66666667,22.6666667 C4.0952381,16.3666667 5.80952381,11.4666667 9.66666667,8.66666667" id="Path"></path>
                                    <path d="M5.95048533,16.6666667 C12.9396198,16.6666667 17.7526584,12.9089524 18.3146667,2.95238095 L18.3146667,0.666666667 L13.8028645,0.666666667 C3.68671612,0.666666667 0.330402897,5.23809524 0.314666667,10.952381 C0.314666667,12.0952381 0.314666667,14.3809524 2.56269964,16.6666667 L5.93474909,16.6666667 L5.95048533,16.6666667 Z" id="Path"></path>
                                </g>
                            </g>
                        </g>
                        <g filter="url(#filter-3)" id="tabler:building-skyscraper">
                            <g transform="translate(0.000000, 12.000000)">
                                <rect id="ViewBox" x="0" y="0" width="48" height="48"></rect>
                                <g id="Group" stroke-linecap="round" stroke-linejoin="round" transform="translate(6.000000, 6.000000)" stroke="#000000" stroke-width="4">
                                    <line x1="0" y1="36" x2="36" y2="36" id="Path"></line>
                                    <polyline id="Path" points="4 36 4 8 20 0 20 36"></polyline>
                                    <polyline id="Path" points="32 36 32 16 20 8"></polyline>
                                    <line x1="12" y1="12" x2="12" y2="12.02" id="Path"></line>
                                    <line x1="12" y1="18" x2="12" y2="18.02" id="Path"></line>
                                    <line x1="12" y1="24" x2="12" y2="24.02" id="Path"></line>
                                    <line x1="12" y1="30" x2="12" y2="30.02" id="Path"></line>
                                </g>
                            </g>
                        </g>
                    </g>
                </g>
                <path d="M62.6,56.56 C65.9333333,56.56 68.5133333,55.66 70.34,53.86 C72.1666667,52.06 73.08,49.4933333 73.08,46.16 L73.08,46.16 L73.08,28.68 C72.3333333,28.5466667 71.44,28.48 70.4,28.48 C69.36,28.48 68.4666667,28.5466667 67.72,28.68 L67.72,28.68 L67.72,46.2 C67.72,50.2533333 66.0133333,52.28 62.6,52.28 C59.2133333,52.28 57.52,50.2533333 57.52,46.2 L57.52,46.2 L57.52,31.88 C57.52,30.68 57.2666667,29.8066667 56.76,29.26 C56.2533333,28.7133333 55.4666667,28.44 54.4,28.44 L54.4,28.44 L52.4,28.44 L52.16,28.72 L52.16,46.16 C52.16,49.4933333 53.0733333,52.06 54.9,53.86 C56.7266667,55.66 59.2933333,56.56 62.6,56.56 Z M80.78,56.2 C81.7,56.2 82.56,56.1333333 83.36,56 L83.36,56 L83.36,43.24 C84.32,41.5866667 85.5733333,40.76 87.12,40.76 C87.9466667,40.8133333 88.56,40.9066667 88.96,41.04 C89.8133333,39.6533333 90.24,38.0266667 90.24,36.16 C89.52,35.9733333 88.72,35.88 87.84,35.88 C85.4666667,35.88 83.7733333,37.0666667 82.76,39.44 C81.96,37.3066667 80.48,36.1066667 78.32,35.84 C77.9733333,36.1066667 77.6333333,36.5066667 77.3,37.04 C76.9666667,37.5733333 76.7466667,38.08 76.64,38.56 C77.6266667,39.4133333 78.12,40.7866667 78.12,42.68 L78.12,42.68 L78.12,56 C78.9733333,56.1333333 79.86,56.2 80.78,56.2 Z M99.72,56.32 C101.106667,56.32 102.38,56.08 103.54,55.6 C104.7,55.12 105.693333,54.44 106.52,53.56 C107.346667,52.68 107.993333,51.62 108.46,50.38 C108.926667,49.14 109.16,47.76 109.16,46.24 C109.16,42.9866667 108.566667,40.4266667 107.38,38.56 C106.193333,36.6933333 104.453333,35.76 102.16,35.76 C100.32,35.76 98.6666667,36.32 97.2,37.44 L97.2,37.44 L97.2,29.8 C97.2,28.6 96.98,27.76 96.54,27.28 C96.1,26.8 95.36,26.56 94.32,26.56 L94.32,26.56 L92.36,26.56 L92.12,26.84 L92.12,55 C94.3866667,55.88 96.92,56.32 99.72,56.32 Z M99.72,52.52 C98.9466667,52.52 98.1066667,52.4133333 97.2,52.2 L97.2,52.2 L97.2,41.8 C97.7333333,41.1866667 98.28,40.74 98.84,40.46 C99.4,40.18 100.026667,40.04 100.72,40.04 C102.773333,40.04 103.8,41.9866667 103.8,45.88 C103.8,48.04 103.446667,49.6866667 102.74,50.82 C102.033333,51.9533333 101.026667,52.52 99.72,52.52 Z M117.28,56.56 C119.333333,56.56 121.226667,55.72 122.96,54.04 C123.76,55.3466667 125.026667,56.1066667 126.76,56.32 C127.106667,56.0533333 127.453333,55.6533333 127.8,55.12 C128.146667,54.5866667 128.386667,54.08 128.52,53.6 C127.773333,53.04 127.4,52.0533333 127.4,50.64 L127.4,50.64 L127.4,42.44 C127.4,40.1733333 126.76,38.48 125.48,37.36 C124.2,36.24 122.56,35.68 120.56,35.68 C117.546667,35.68 114.626667,36.28 111.8,37.48 C111.96,39.1333333 112.413333,40.3733333 113.16,41.2 C115.88,40.2666667 117.906667,39.8 119.24,39.8 C121.213333,39.8 122.2,40.8133333 122.2,42.84 L122.2,42.84 L122.2,43.92 C121.4,43.84 120.28,43.8 118.84,43.8 C117.72,43.8 116.686667,43.9466667 115.74,44.24 C114.793333,44.5333333 113.966667,44.96 113.26,45.52 C112.553333,46.08 112.006667,46.78 111.62,47.62 C111.233333,48.46 111.04,49.44 111.04,50.56 C111.04,51.3333333 111.166667,52.08 111.42,52.8 C111.673333,53.52 112.06,54.16 112.58,54.72 C113.1,55.28 113.753333,55.7266667 114.54,56.06 C115.326667,56.3933333 116.24,56.56 117.28,56.56 Z M118.44,52.6 C117.746667,52.6 117.2,52.38 116.8,51.94 C116.4,51.5 116.2,50.88 116.2,50.08 C116.2,49.0666667 116.506667,48.34 117.12,47.9 C117.733333,47.46 118.626667,47.24 119.8,47.24 C120.173333,47.24 120.56,47.2533333 120.96,47.28 C121.36,47.3066667 121.773333,47.3333333 122.2,47.36 L122.2,47.36 L122.2,50.84 C121.026667,52.0133333 119.773333,52.6 118.44,52.6 Z M146,56.28 C147.2,56.28 148.226667,55.9066667 149.08,55.16 C148.52,54.3333333 148.24,53.0666667 148.24,51.36 L148.24,51.36 L148.24,42.64 C148.24,40.56 147.78,38.9 146.86,37.66 C145.94,36.42 144.52,35.8 142.6,35.8 C140.68,35.8 138.746667,36.64 136.8,38.32 C136.426667,36.72 135.493333,35.92 134,35.92 L134,35.92 L132,35.92 L131.76,36.2 L131.76,56 C132.16,56.08 132.58,56.1333333 133.02,56.16 C133.46,56.1866667 133.906667,56.2 134.36,56.2 C134.813333,56.2 135.26,56.1866667 135.7,56.16 C136.14,56.1333333 136.56,56.08 136.96,56 L136.96,56 L136.96,42.4 C138.186667,41.12 139.506667,40.48 140.92,40.48 C141.72,40.48 142.266667,40.72 142.56,41.2 C142.853333,41.68 143,42.52 143,43.72 L143,43.72 L143,53.04 C143,54.16 143.213333,54.98 143.64,55.5 C144.066667,56.02 144.853333,56.28 146,56.28 Z M170.88,56.56 C174.666667,56.56 178.146667,56 181.32,54.88 L181.32,54.88 L181.32,44.4 C181.32,42.1333333 180.093333,41 177.64,41 L177.64,41 L171.44,41.04 C171.173333,41.7866667 171.04,42.5066667 171.04,43.2 C171.04,44.0266667 171.233333,44.6266667 171.62,45 C172.006667,45.3733333 172.666667,45.56 173.6,45.56 L173.6,45.56 L176.32,45.56 C176.293333,45.8533333 176.273333,46.22 176.26,46.66 C176.246667,47.1 176.24,47.6133333 176.24,48.2 L176.24,48.2 L176.24,51.76 C174.88,52.08 173.466667,52.24 172,52.24 C167.226667,52.24 164.84,48.9733333 164.84,42.44 C164.84,35.9066667 167.24,32.64 172.04,32.64 C174.386667,32.64 176.626667,33.4 178.76,34.92 C179.346667,34.5466667 179.886667,33.9933333 180.38,33.26 C180.873333,32.5266667 181.16,31.7733333 181.24,31 C178.386667,29.08 175.253333,28.12 171.84,28.12 C170.186667,28.12 168.606667,28.4066667 167.1,28.98 C165.593333,29.5533333 164.266667,30.4333333 163.12,31.62 C161.973333,32.8066667 161.053333,34.3066667 160.36,36.12 C159.666667,37.9333333 159.32,40.0666667 159.32,42.52 C159.32,44.6266667 159.56,46.5466667 160.04,48.28 C160.52,50.0133333 161.24,51.4933333 162.2,52.72 C163.16,53.9466667 164.366667,54.8933333 165.82,55.56 C167.273333,56.2266667 168.96,56.56 170.88,56.56 Z M190.28,56.56 C192.333333,56.56 194.226667,55.72 195.96,54.04 C196.76,55.3466667 198.026667,56.1066667 199.76,56.32 C200.106667,56.0533333 200.453333,55.6533333 200.8,55.12 C201.146667,54.5866667 201.386667,54.08 201.52,53.6 C200.773333,53.04 200.4,52.0533333 200.4,50.64 L200.4,50.64 L200.4,42.44 C200.4,40.1733333 199.76,38.48 198.48,37.36 C197.2,36.24 195.56,35.68 193.56,35.68 C190.546667,35.68 187.626667,36.28 184.8,37.48 C184.96,39.1333333 185.413333,40.3733333 186.16,41.2 C188.88,40.2666667 190.906667,39.8 192.24,39.8 C194.213333,39.8 195.2,40.8133333 195.2,42.84 L195.2,42.84 L195.2,43.92 C194.4,43.84 193.28,43.8 191.84,43.8 C190.72,43.8 189.686667,43.9466667 188.74,44.24 C187.793333,44.5333333 186.966667,44.96 186.26,45.52 C185.553333,46.08 185.006667,46.78 184.62,47.62 C184.233333,48.46 184.04,49.44 184.04,50.56 C184.04,51.3333333 184.166667,52.08 184.42,52.8 C184.673333,53.52 185.06,54.16 185.58,54.72 C186.1,55.28 186.753333,55.7266667 187.54,56.06 C188.326667,56.3933333 189.24,56.56 190.28,56.56 Z M191.44,52.6 C190.746667,52.6 190.2,52.38 189.8,51.94 C189.4,51.5 189.2,50.88 189.2,50.08 C189.2,49.0666667 189.506667,48.34 190.12,47.9 C190.733333,47.46 191.626667,47.24 192.8,47.24 C193.173333,47.24 193.56,47.2533333 193.96,47.28 C194.36,47.3066667 194.773333,47.3333333 195.2,47.36 L195.2,47.36 L195.2,50.84 C194.026667,52.0133333 192.773333,52.6 191.44,52.6 Z M207.74,56.2 C208.66,56.2 209.52,56.1333333 210.32,56 L210.32,56 L210.32,43.24 C211.28,41.5866667 212.533333,40.76 214.08,40.76 C214.906667,40.8133333 215.52,40.9066667 215.92,41.04 C216.773333,39.6533333 217.2,38.0266667 217.2,36.16 C216.48,35.9733333 215.68,35.88 214.8,35.88 C212.426667,35.88 210.733333,37.0666667 209.72,39.44 C208.92,37.3066667 207.44,36.1066667 205.28,35.84 C204.933333,36.1066667 204.593333,36.5066667 204.26,37.04 C203.926667,37.5733333 203.706667,38.08 203.6,38.56 C204.586667,39.4133333 205.08,40.7866667 205.08,42.68 L205.08,42.68 L205.08,56 C205.933333,56.1333333 206.82,56.2 207.74,56.2 Z M224.36,56.56 C226.6,56.56 228.506667,55.6933333 230.08,53.96 C230.853333,55.3733333 232.106667,56.16 233.84,56.32 C234.213333,56.0533333 234.566667,55.6533333 234.9,55.12 C235.233333,54.5866667 235.453333,54.08 235.56,53.6 C234.813333,53.0133333 234.44,51.9066667 234.44,50.28 L234.44,50.28 L234.44,29.8 C234.44,28.6 234.226667,27.76 233.8,27.28 C233.373333,26.8 232.64,26.56 231.6,26.56 L231.6,26.56 L229.6,26.56 L229.32,26.84 L229.32,36.84 C227.88,36.12 226.52,35.76 225.24,35.76 C224.146667,35.76 223.126667,36 222.18,36.48 C221.233333,36.96 220.406667,37.6466667 219.7,38.54 C218.993333,39.4333333 218.433333,40.52 218.02,41.8 C217.606667,43.08 217.4,44.5333333 217.4,46.16 C217.4,47.76 217.546667,49.2 217.84,50.48 C218.133333,51.76 218.573333,52.8466667 219.16,53.74 C219.746667,54.6333333 220.473333,55.3266667 221.34,55.82 C222.206667,56.3133333 223.213333,56.56 224.36,56.56 Z M225.72,52.28 C224.84,52.28 224.12,51.7933333 223.56,50.82 C223,49.8466667 222.72,48.32 222.72,46.24 C222.72,44.1066667 223.033333,42.4933333 223.66,41.4 C224.286667,40.3066667 225.12,39.76 226.16,39.76 C226.613333,39.76 227.106667,39.86 227.64,40.06 C228.173333,40.26 228.733333,40.5466667 229.32,40.92 L229.32,40.92 L229.32,50.28 C228.306667,51.6133333 227.106667,52.28 225.72,52.28 Z M246.32,56.56 C249.306667,56.56 251.866667,55.8 254,54.28 C253.786667,52.9733333 253.293333,51.92 252.52,51.12 C250.52,52.0266667 248.746667,52.48 247.2,52.48 C245.706667,52.48 244.66,52.06 244.06,51.22 C243.46,50.38 243.12,49.2266667 243.04,47.76 L243.04,47.76 L254.08,47.76 C254.213333,47.1733333 254.32,46.58 254.4,45.98 C254.48,45.38 254.52,44.7466667 254.52,44.08 C254.52,42.8533333 254.34,41.72 253.98,40.68 C253.62,39.64 253.08,38.74 252.36,37.98 C251.64,37.22 250.76,36.6333333 249.72,36.22 C248.68,35.8066667 247.48,35.6 246.12,35.6 C244.786667,35.6 243.6,35.8533333 242.56,36.36 C241.52,36.8666667 240.64,37.58 239.92,38.5 C239.2,39.42 238.653333,40.5266667 238.28,41.82 C237.906667,43.1133333 237.72,44.56 237.72,46.16 C237.72,49.6 238.446667,52.1933333 239.9,53.94 C241.353333,55.6866667 243.493333,56.56 246.32,56.56 Z M249.64,44.08 L243,44.08 C243.16,40.9333333 244.28,39.36 246.36,39.36 C247.48,39.36 248.306667,39.7466667 248.84,40.52 C249.373333,41.2933333 249.64,42.32 249.64,43.6 L249.64,43.6 L249.64,44.08 Z M272.16,56.28 C273.36,56.28 274.386667,55.9066667 275.24,55.16 C274.68,54.3333333 274.4,53.0666667 274.4,51.36 L274.4,51.36 L274.4,42.64 C274.4,40.56 273.94,38.9 273.02,37.66 C272.1,36.42 270.68,35.8 268.76,35.8 C266.84,35.8 264.906667,36.64 262.96,38.32 C262.586667,36.72 261.653333,35.92 260.16,35.92 L260.16,35.92 L258.16,35.92 L257.92,36.2 L257.92,56 C258.32,56.08 258.74,56.1333333 259.18,56.16 C259.62,56.1866667 260.066667,56.2 260.52,56.2 C260.973333,56.2 261.42,56.1866667 261.86,56.16 C262.3,56.1333333 262.72,56.08 263.12,56 L263.12,56 L263.12,42.4 C264.346667,41.12 265.666667,40.48 267.08,40.48 C267.88,40.48 268.426667,40.72 268.72,41.2 C269.013333,41.68 269.16,42.52 269.16,43.72 L269.16,43.72 L269.16,53.04 C269.16,54.16 269.373333,54.98 269.8,55.5 C270.226667,56.02 271.013333,56.28 272.16,56.28 Z" id="UrbanGarden" fill="#417505" fill-rule="nonzero"></path>
            </g>
        </g>
    </g>
</svg>