<?xml version="1.0" encoding="UTF-8"?>
<svg width="58px" height="80px" viewBox="0 0 58 80" version="1.1" xmlns="http://www.w3.org/2000/svg" xmlns:xlink="http://www.w3.org/1999/xlink">
    <title>Group 4</title>
    <defs>
        <filter id="filter-1">
            <feColorMatrix in="SourceGraphic" type="matrix" values="0 0 0 0 0.494118 0 0 0 0 0.827451 0 0 0 0 0.129412 0 0 0 1.000000 0"></feColorMatrix>
        </filter>
        <filter id="filter-2">
            <feColorMatrix in="SourceGraphic" type="matrix" values="0 0 0 0 0.254902 0 0 0 0 0.458824 0 0 0 0 0.019608 0 0 0 1.000000 0"></feColorMatrix>
        </filter>
    </defs>
    <g id="Page-1" stroke="none" stroke-width="1" fill="none" fill-rule="evenodd">
        <g id="Artboard" transform="translate(-677.000000, -376.000000)">
            <g id="Group-4" transform="translate(677.000000, 376.000000)">
                <g filter="url(#filter-1)" id="Rectangle">
                    <g>
                        <g filter="url(#filter-2)" id="tabler:leaf-copy-7">
                            <g transform="translate(26.000000, 0.000000)">
                                <rect id="ViewBox" x="0" y="0" width="32" height="32"></rect>
                                <g id="Group" stroke-linecap="round" stroke-linejoin="round" transform="translate(5.000000, 7.333333)" stroke="#000000" stroke-width="4">
                                    <path d="M3.66666667,22.6666667 C4.0952381,16.3666667 5.80952381,11.4666667 9.66666667,8.66666667" id="Path"></path>
                                    <path d="M5.95048533,16.6666667 C12.9396198,16.6666667 17.7526584,12.9089524 18.3146667,2.95238095 L18.3146667,0.666666667 L13.8028645,0.666666667 C3.68671612,0.666666667 0.330402897,5.23809524 0.314666667,10.952381 C0.314666667,12.0952381 0.314666667,14.3809524 2.56269964,16.6666667 L5.93474909,16.6666667 L5.95048533,16.6666667 Z" id="Path"></path>
                                </g>
                            </g>
                        </g>
                        <g id="tabler:building-skyscraper" transform="translate(0.000000, 12.000000)">
                            <rect id="ViewBox" x="0" y="0" width="48" height="48"></rect>
                            <g id="Group" stroke-linecap="round" stroke-linejoin="round" transform="translate(6.000000, 6.000000)" stroke-width="4">
                                <line x1="0" y1="36" x2="36" y2="36" id="Path" stroke="#000000"></line>
                                <polyline id="Path" stroke="#6EA41C" points="4 36 4 8 20 0 20 36"></polyline>
                                <polyline id="Path" stroke="#6EA41C" points="32 36 32 16 20 8"></polyline>
                                <line x1="12" y1="12" x2="12" y2="12.02" id="Path" stroke="#6EA41C"></line>
                                <line x1="12" y1="18" x2="12" y2="18.02" id="Path" stroke="#6EA41C"></line>
                                <line x1="12" y1="24" x2="12" y2="24.02" id="Path" stroke="#6EA41C"></line>
                                <line x1="12" y1="30" x2="12" y2="30.02" id="Path" stroke="#6EA41C"></line>
                            </g>
                        </g>
                    </g>
                </g>
                <path d="M14.72,79.948 C17.3866667,79.948 19.4506667,79.228 20.912,77.788 C22.3733333,76.348 23.104,74.2946667 23.104,71.628 L23.104,71.628 L23.104,57.644 C22.5066667,57.5373333 21.792,57.484 20.96,57.484 C20.128,57.484 19.4133333,57.5373333 18.816,57.644 L18.816,57.644 L18.816,71.66 C18.816,74.9026667 17.4506667,76.524 14.72,76.524 C12.0106667,76.524 10.656,74.9026667 10.656,71.66 L10.656,71.66 L10.656,60.204 C10.656,59.244 10.4533333,58.5453333 10.048,58.108 C9.64266667,57.6706667 9.01333333,57.452 8.16,57.452 L8.16,57.452 L6.56,57.452 L6.368,57.676 L6.368,71.628 C6.368,74.2946667 7.09866667,76.348 8.56,77.788 C10.0213333,79.228 12.0746667,79.948 14.72,79.948 Z M33.864,79.948 C36.8933333,79.948 39.6773333,79.5 42.216,78.604 L42.216,78.604 L42.216,70.22 C42.216,68.4066667 41.2346667,67.5 39.272,67.5 L39.272,67.5 L34.312,67.532 C34.0986667,68.1293333 33.992,68.7053333 33.992,69.26 C33.992,69.9213333 34.1466667,70.4013333 34.456,70.7 C34.7653333,70.9986667 35.2933333,71.148 36.04,71.148 L36.04,71.148 L38.216,71.148 C38.1946667,71.3826667 38.1786667,71.676 38.168,72.028 C38.1573333,72.38 38.152,72.7906667 38.152,73.26 L38.152,76.108 C37.064,76.364 35.9333333,76.492 34.76,76.492 C30.9413333,76.492 29.032,73.8786667 29.032,68.652 C29.032,63.4253333 30.952,60.812 34.792,60.812 C36.6693333,60.812 38.4613333,61.42 40.168,62.636 C40.6373333,62.3373333 41.0693333,61.8946667 41.464,61.308 C41.8586667,60.7213333 42.088,60.1186667 42.152,59.5 C39.8693333,57.964 37.3626667,57.196 34.632,57.196 C33.3093333,57.196 32.0453333,57.4253333 30.84,57.884 C29.6346667,58.3426667 28.5733333,59.0466667 27.656,59.996 C26.7386667,60.9453333 26.0026667,62.1453333 25.448,63.596 C24.8933333,65.0466667 24.616,66.7533333 24.616,68.716 C24.616,70.4013333 24.808,71.9373333 25.192,73.324 C25.576,74.7106667 26.152,75.8946667 26.92,76.876 C27.688,77.8573333 28.6533333,78.6146667 29.816,79.148 C30.9786667,79.6813333 32.328,79.948 33.864,79.948 Z" id="UG-Copy-2" fill="#417505" fill-rule="nonzero"></path>
            </g>
        </g>
    </g>
</svg>